<svg width="44" height="44" xmlns="http://www.w3.org/2000/svg"><defs><linearGradient x1="0%" y1="0%" y2="100%" id="a"><stop stop-color="#FD8FA4" offset="0%"/><stop stop-color="#F16070" offset="100%"/></linearGradient></defs><g fill="none"><circle fill="url(#a)" cx="22" cy="22" r="22"/><g transform="translate(12 11)" fill="#FFF"><rect x="3" y="9" width="2" height="8" rx=".5"/><rect x="7" y="9" width="2" height="8" rx=".5"/><rect x="11" y="9" width="2" height="8" rx=".5"/><rect x="15" y="9" width="2" height="8" rx=".5"/><path d="M11.176.856l7.337 5.335A1 1 0 0117.925 8H2.075a1 1 0 01-.588-1.809L8.824.856a2 2 0 012.352 0z"/><rect y="19" width="20" height="2" rx="1"/><rect x="2" y="18" width="16" height="2" rx="1"/></g></g></svg>