<svg xmlns="http://www.w3.org/2000/svg" width="37" height="37"><defs><linearGradient id="a" x1="0%" x2="50%" y1="0%" y2="100%"><stop offset="0%" stop-color="#C19CE1"/><stop offset="100%" stop-color="#A375CA"/></linearGradient></defs><g fill="none" transform="translate(1 1)"><circle cx="18" cy="18" r="18" fill="url(#a)"/><path fill="#FFF" d="M24.545 10.636h.819c.903 0 1.636.733 1.636 1.637v11.454c0 .904-.733 1.637-1.636 1.637H10.636A1.636 1.636 0 019 23.727V12.273c0-.904.733-1.637 1.636-1.637h.819v.819a2.455 2.455 0 104.909 0v-.819h3.272v.819a2.455 2.455 0 004.91 0v-.819z"/><rect width="1.636" height="3.273" x="13.091" y="9" fill="#FFF" rx=".818"/><rect width="1.636" height="3.273" x="21.273" y="9" fill="#FFF" rx=".818"/><path fill="#B085D4" d="M20.644 16.658a.818.818 0 011.257 1.048l-4.09 4.909a.818.818 0 01-1.208.054l-2.454-2.454a.818.818 0 111.157-1.157l1.82 1.82 3.518-4.22z"/></g></svg>